<?xml version="1.0" encoding="utf-8"?>
<!-- Generator: Adobe Illustrator 24.3.0, SVG Export Plug-In . SVG Version: 6.00 Build 0)  -->
<svg version="1.1" id="Lager_1" xmlns="http://www.w3.org/2000/svg" xmlns:xlink="http://www.w3.org/1999/xlink" x="0px" y="0px"
	 viewBox="0 0 64 64" style="enable-background:new 0 0 64 64;" xml:space="preserve">
<style type="text/css">
	.st0{fill:#FFFFFF;}
</style>
<g>
	<ellipse class="st0" cx="32.4" cy="23.2" rx="14.6" ry="6.2"/>
	<path class="st0" d="M32.4,42.8c-6.2,0-11.4-1.6-13.6-4c-0.4-0.4-1-0.1-1,0.4v3.6c0,3.4,6.5,6.2,14.6,6.2S47,46.2,47,42.8v-3.6
		c0-0.5-0.6-0.8-1-0.4C43.9,41.1,38.6,42.8,32.4,42.8z"/>
	<path class="st0" d="M32.4,32.8c-6.2,0-11.4-1.6-13.6-4c-0.4-0.4-1-0.1-1,0.4v3.6c0,3.4,6.5,6.2,14.6,6.2S47,36.3,47,32.8v-3.6
		c0-0.5-0.6-0.8-1-0.4C43.9,31.2,38.6,32.8,32.4,32.8z"/>
</g>
</svg>
