<svg width="23" height="23" viewBox="0 0 23 23" fill="none" xmlns="http://www.w3.org/2000/svg">
<path d="M13.6562 4.3125H5.03125C4.6345 4.3125 4.3125 4.6345 4.3125 5.03125C4.3125 5.428 4.6345 5.75 5.03125 5.75H13.6562C14.053 5.75 14.375 5.428 14.375 5.03125C14.375 4.6345 14.053 4.3125 13.6562 4.3125Z" fill="#F8F8F8"/>
<path d="M10.7812 7.1875H5.03125C4.6345 7.1875 4.3125 7.5095 4.3125 7.90625C4.3125 8.303 4.6345 8.625 5.03125 8.625H10.7812C11.178 8.625 11.5 8.303 11.5 7.90625C11.5 7.5095 11.178 7.1875 10.7812 7.1875Z" fill="#F8F8F8"/>
<path d="M15.8125 0H2.875C1.28944 0 0 1.28944 0 2.875V17.25C0 17.5289 0.161 17.7833 0.414 17.9012C0.510312 17.9457 0.61525 17.9688 0.71875 17.9688C0.884063 17.9688 1.04794 17.9112 1.17875 17.802L5.29144 14.375H15.8125C17.3981 14.375 18.6875 13.0856 18.6875 11.5V2.875C18.6875 1.28944 17.3981 0 15.8125 0ZM17.25 11.5C17.25 12.2921 16.606 12.9375 15.8125 12.9375H5.03125C4.86306 12.9375 4.70062 12.9964 4.57125 13.1042L1.4375 15.7162V2.875C1.4375 2.08294 2.0815 1.4375 2.875 1.4375H15.8125C16.606 1.4375 17.25 2.08294 17.25 2.875V11.5Z" fill="#F8F8F8"/>
<path d="M20.125 5.75C19.7282 5.75 19.4062 6.072 19.4062 6.46875C19.4062 6.8655 19.7282 7.1875 20.125 7.1875C20.9185 7.1875 21.5625 7.83294 21.5625 8.625V20.7848L19.136 18.8442C19.0095 18.7436 18.8499 18.6875 18.6875 18.6875H8.625C7.8315 18.6875 7.1875 18.0421 7.1875 17.25V16.5312C7.1875 16.1345 6.8655 15.8125 6.46875 15.8125C6.072 15.8125 5.75 16.1345 5.75 16.5312V17.25C5.75 18.8356 7.03944 20.125 8.625 20.125H18.4345L21.8313 22.8433C21.9621 22.9468 22.1217 23 22.2812 23C22.3862 23 22.4926 22.977 22.5932 22.9296C22.8419 22.8088 23 22.5572 23 22.2812V8.625C23 7.03944 21.7106 5.75 20.125 5.75Z" fill="#F8F8F8"/>
</svg>
