<svg width="16" height="19" viewBox="0 0 16 19" fill="none" xmlns="http://www.w3.org/2000/svg">
<path fill-rule="evenodd" clip-rule="evenodd" d="M9.28963 1.10315H6.19286V3.30944H2.06445V15.4449H14.4516V3.30944H9.28963V1.10315Z" fill="white"/>
<path d="M14.2222 1.90001H10.5022C10.1378 0.797999 9.15998 0 7.99998 0C6.83998 0 5.86219 0.797999 5.49778 1.90001H1.77779C0.795581 1.90001 0 2.75025 0 3.80003V17.1C0 18.1497 0.79554 19 1.77779 19H14.2222C15.2044 19 16 18.1498 16 17.1V3.79998C16 2.75025 15.2044 1.90001 14.2222 1.90001ZM7.99998 1.90001C8.48885 1.90001 8.88885 2.32275 8.88885 2.85C8.88885 3.37725 8.48885 3.79998 7.99998 3.79998C7.51111 3.79998 7.11111 3.37725 7.11111 2.85C7.11111 2.32275 7.51111 1.90001 7.99998 1.90001ZM6.22223 15.2L2.66666 11.4L3.92445 10.0557L6.22223 12.5115L9.14889 9.38362L12.0756 6.25574L13.3333 7.60001L6.22223 15.2Z" fill="#48B12D"/>
</svg>
