<svg width="25" height="19" viewBox="0 0 25 19" fill="none" xmlns="http://www.w3.org/2000/svg">
<path d="M11.6788 4.79261C11.6788 4.97609 11.6666 5.15957 11.6397 5.34073C11.6495 5.27802 11.6568 5.21763 11.6666 5.15493C11.6129 5.51724 11.5128 5.87027 11.3638 6.20936C11.3882 6.15362 11.4126 6.09788 11.4371 6.04214C11.3321 6.27671 11.2027 6.502 11.0537 6.71567C11.0147 6.77142 10.9731 6.82483 10.9341 6.87825C10.8437 6.99902 11.0415 6.75283 10.9609 6.84574C10.9414 6.86896 10.9219 6.89219 10.8999 6.91774C10.8144 7.01528 10.7241 7.10818 10.6313 7.19876C10.5361 7.28934 10.4384 7.37295 10.3359 7.45424C10.3115 7.47282 10.287 7.49373 10.2602 7.51231C10.1625 7.58895 10.4042 7.41011 10.3066 7.47747C10.2504 7.51695 10.1943 7.55411 10.1357 7.59127C9.90859 7.73759 9.66687 7.86069 9.41538 7.96288C9.47398 7.93965 9.53258 7.91643 9.59118 7.8932C9.23714 8.03488 8.86601 8.13243 8.48267 8.1812C8.5486 8.17191 8.61208 8.16494 8.678 8.15565C8.29466 8.2021 7.90888 8.2021 7.52555 8.15565C7.59147 8.16494 7.65495 8.17191 7.72088 8.1812C7.33998 8.1301 6.96885 8.03488 6.61237 7.8932C6.67097 7.91643 6.72957 7.93965 6.78817 7.96288C6.54156 7.86301 6.30472 7.73992 6.08009 7.59824C6.02149 7.56108 5.96534 7.5216 5.90918 7.48444C5.78221 7.3985 6.04103 7.58663 5.94336 7.50998C5.91894 7.4914 5.89453 7.47282 5.86767 7.45192C5.76512 7.37063 5.66745 7.2847 5.57223 7.19644C5.47701 7.10586 5.38911 7.01296 5.30365 6.91541C5.28412 6.89219 5.26214 6.86896 5.24261 6.84341C5.16203 6.75051 5.35004 6.98044 5.27923 6.88754C5.23773 6.83412 5.19866 6.78071 5.15959 6.72496C5.00577 6.50897 4.87636 6.27904 4.76893 6.03981C4.79335 6.09556 4.81776 6.1513 4.84218 6.20704C4.69324 5.87027 4.59069 5.51724 4.53942 5.1526C4.54918 5.21531 4.55651 5.2757 4.56627 5.33841C4.51744 4.97377 4.51744 4.60681 4.56627 4.24217C4.55651 4.30488 4.54918 4.36526 4.53942 4.42797C4.59313 4.06565 4.69324 3.71263 4.84218 3.37354C4.81776 3.42928 4.79335 3.48502 4.76893 3.54076C4.87392 3.30618 5.00333 3.0809 5.15227 2.86722C5.19133 2.81148 5.23284 2.75806 5.27191 2.70464C5.36225 2.58387 5.16448 2.83006 5.24505 2.73716C5.26458 2.71393 5.28412 2.69071 5.30609 2.66516C5.39155 2.56761 5.48189 2.47471 5.57467 2.38413C5.66745 2.29355 5.76756 2.20994 5.87011 2.12865C5.89453 2.11007 5.91894 2.08917 5.9458 2.07059C6.04347 1.99395 5.80175 2.17278 5.89941 2.10543C5.95557 2.06594 6.01173 2.02878 6.07033 1.99162C6.2974 1.8453 6.53912 1.72221 6.79061 1.62002C6.73201 1.64324 6.67341 1.66647 6.61481 1.68969C6.96885 1.54802 7.33998 1.45047 7.72332 1.4017C7.65739 1.41099 7.59391 1.41796 7.52799 1.42725C7.91133 1.38079 8.29711 1.38079 8.68044 1.42725C8.61452 1.41796 8.55104 1.41099 8.48511 1.4017C8.86601 1.45279 9.23714 1.54802 9.59362 1.68969C9.53502 1.66647 9.47642 1.64324 9.41782 1.62002C9.66443 1.71989 9.90127 1.84298 10.1259 1.98466C10.1845 2.02182 10.2407 2.0613 10.2968 2.09846C10.4238 2.18439 10.165 1.99627 10.2626 2.07291C10.287 2.09149 10.3115 2.11007 10.3383 2.13098C10.4409 2.21226 10.5385 2.2982 10.6338 2.38646C10.729 2.47703 10.8169 2.56994 10.9023 2.66748C10.9219 2.69071 10.9438 2.71393 10.9634 2.73948C11.044 2.83238 10.8559 2.60245 10.9268 2.69535C10.9683 2.74877 11.0073 2.80219 11.0464 2.85793C11.2002 3.07393 11.3296 3.30386 11.4371 3.54308C11.4126 3.48734 11.3882 3.4316 11.3638 3.37586C11.5128 3.71263 11.6153 4.06565 11.6666 4.43029C11.6568 4.36758 11.6495 4.3072 11.6397 4.24449C11.6666 4.42565 11.6788 4.60913 11.6788 4.79261C11.6812 5.15725 12.0157 5.50563 12.4113 5.48937C12.8068 5.47311 13.1462 5.1828 13.1438 4.79261C13.1389 3.82411 12.8337 2.84167 12.2379 2.05433C11.6177 1.23447 10.7851 0.625968 9.78651 0.275264C7.86005 -0.398273 5.55026 0.196298 4.2513 1.70827C3.56764 2.5049 3.16233 3.44321 3.07687 4.46978C2.9963 5.43595 3.25755 6.43929 3.78495 7.26612C4.29525 8.06507 5.06193 8.74325 5.96045 9.13112C6.96641 9.56311 8.05294 9.68853 9.13703 9.48647C11.1123 9.11486 12.7604 7.50534 13.0656 5.60782C13.1096 5.33841 13.1413 5.06899 13.1413 4.79493C13.1438 4.43029 12.8044 4.08191 12.4088 4.09817C12.0133 4.1121 11.6812 4.4001 11.6788 4.79261Z" fill="#F8F8F8"/>
<path d="M20.3302 6.08154C20.3302 6.2209 20.3204 6.36025 20.3009 6.4996C20.3106 6.43689 20.318 6.37651 20.3277 6.3138C20.2887 6.58322 20.213 6.84334 20.1006 7.09418C20.1251 7.03844 20.1495 6.9827 20.1739 6.92695C20.0958 7.10115 20.003 7.26605 19.8907 7.42398C19.8614 7.46579 19.8296 7.50759 19.7979 7.5494C19.7808 7.5703 19.7295 7.63534 19.8076 7.54011C19.8882 7.44024 19.8247 7.51688 19.8052 7.54011C19.7417 7.61443 19.6734 7.68411 19.6026 7.75379C19.5342 7.81882 19.4634 7.8792 19.3901 7.93727C19.3828 7.94423 19.3389 7.98836 19.3291 7.98604C19.3291 7.98604 19.4829 7.87688 19.4023 7.93262C19.3584 7.96282 19.3169 7.99301 19.2729 8.02088C19.1045 8.13004 18.9238 8.22062 18.7382 8.29726C18.7968 8.27404 18.8554 8.25081 18.914 8.22759C18.6503 8.3321 18.3768 8.4041 18.0936 8.44359C18.1595 8.4343 18.223 8.42733 18.2889 8.41804C17.9959 8.4552 17.703 8.4552 17.41 8.41804C17.4759 8.42733 17.5394 8.4343 17.6053 8.44359C17.3221 8.40642 17.0486 8.33442 16.7849 8.22759C16.8435 8.25081 16.9021 8.27404 16.9607 8.29726C16.7776 8.22294 16.6042 8.13469 16.4382 8.02785C16.3942 7.99998 16.3503 7.96978 16.3063 7.93959C16.2844 7.92333 16.216 7.87456 16.3161 7.94888C16.4211 8.02552 16.3405 7.96514 16.3161 7.94656C16.238 7.88617 16.1647 7.82114 16.0915 7.75379C16.0231 7.68875 15.9596 7.6214 15.8986 7.55172C15.8912 7.54476 15.8449 7.50295 15.8473 7.49366C15.8473 7.49366 15.9621 7.63998 15.9035 7.56334C15.8717 7.52153 15.84 7.48205 15.8107 7.44024C15.6959 7.27998 15.6007 7.10811 15.5201 6.9316C15.5445 6.98734 15.569 7.04308 15.5934 7.09882C15.4835 6.84799 15.4078 6.58786 15.3663 6.31844C15.3761 6.38115 15.3834 6.44154 15.3932 6.50425C15.3541 6.22554 15.3541 5.94683 15.3932 5.66813C15.3834 5.73084 15.3761 5.79122 15.3663 5.85393C15.4054 5.58452 15.4811 5.32439 15.5934 5.07355C15.569 5.12929 15.5445 5.18504 15.5201 5.24078C15.5983 5.06659 15.691 4.90168 15.8033 4.74375C15.8326 4.70194 15.8644 4.66014 15.8961 4.61833C15.9132 4.59743 15.9645 4.5324 15.8864 4.62762C15.8058 4.72749 15.8693 4.65085 15.8888 4.62762C15.9523 4.5533 16.0207 4.48362 16.0915 4.41395C16.1598 4.34891 16.2306 4.28853 16.3039 4.23046C16.3112 4.2235 16.3552 4.17937 16.3649 4.18169C16.3649 4.18169 16.2111 4.29085 16.2917 4.23511C16.3356 4.20492 16.3771 4.17472 16.4211 4.14685C16.5896 4.03769 16.7702 3.94711 16.9558 3.87047C16.8972 3.89369 16.8386 3.91692 16.78 3.94014C17.0437 3.83563 17.3172 3.76363 17.6004 3.72415C17.5345 3.73344 17.471 3.7404 17.4051 3.74969C17.6981 3.71253 17.9911 3.71253 18.2841 3.74969C18.2181 3.7404 18.1547 3.73344 18.0887 3.72415C18.372 3.76131 18.6454 3.83331 18.9091 3.94014C18.8505 3.91692 18.7919 3.89369 18.7333 3.87047C18.9164 3.94479 19.0898 4.03305 19.2558 4.13988C19.2998 4.16775 19.3437 4.19795 19.3877 4.22814C19.4097 4.2444 19.478 4.29317 19.3779 4.21885C19.2729 4.14221 19.3535 4.20259 19.3779 4.22117C19.4561 4.28156 19.5293 4.34659 19.6026 4.41395C19.6709 4.47898 19.7344 4.54633 19.7954 4.61601C19.8028 4.62298 19.8492 4.66478 19.8467 4.67407C19.8467 4.67407 19.732 4.52775 19.7906 4.6044C19.8223 4.6462 19.854 4.68569 19.8833 4.72749C19.9981 4.88775 20.0933 5.05962 20.1739 5.23613C20.1495 5.18039 20.1251 5.12465 20.1006 5.06891C20.2105 5.31974 20.2862 5.57987 20.3277 5.84929C20.318 5.78658 20.3106 5.72619 20.3009 5.66348C20.3204 5.80284 20.3302 5.94219 20.3302 6.08154C20.3326 6.44618 20.6647 6.79457 21.0627 6.77831C21.4582 6.76205 21.7976 6.47173 21.7951 6.08154C21.7903 5.33136 21.5559 4.56027 21.0944 3.94711C20.6012 3.29447 19.9468 2.8137 19.1508 2.53732C17.659 2.01707 15.8497 2.48158 14.8438 3.64982C14.3017 4.27924 13.9843 5.00852 13.9135 5.82142C13.8476 6.57393 14.0527 7.3636 14.4629 8.01159C14.8584 8.63636 15.4591 9.17287 16.1623 9.47248C16.9631 9.81622 17.8177 9.91609 18.6796 9.75119C20.2081 9.45854 21.4973 8.20204 21.7341 6.73186C21.7683 6.51586 21.7951 6.29986 21.7976 6.08154C21.8 5.7169 21.4582 5.36852 21.0651 5.38478C20.6647 5.40103 20.3326 5.69135 20.3302 6.08154Z" fill="#F8F8F8"/>
<path d="M14.7406 15.6645C14.7406 15.9595 14.7406 16.2545 14.7406 16.5471C14.7406 16.849 14.7674 17.1649 14.7308 17.4668C14.7406 17.4041 14.7479 17.3437 14.7576 17.281C14.7454 17.3646 14.7235 17.4436 14.6893 17.5203C14.7137 17.4645 14.7381 17.4088 14.7625 17.353C14.7357 17.4088 14.7039 17.4622 14.6722 17.5133C14.616 17.6062 14.7796 17.4018 14.721 17.4575C14.699 17.4784 14.6795 17.504 14.6575 17.5249C14.638 17.5435 14.6185 17.5597 14.5989 17.576C14.511 17.655 14.7528 17.4831 14.6453 17.5388C14.5892 17.569 14.5355 17.5992 14.4769 17.6248C14.5355 17.6015 14.5941 17.5783 14.6527 17.5551C14.5696 17.5853 14.4891 17.6062 14.4012 17.6201C14.4671 17.6108 14.5306 17.6039 14.5965 17.5946C14.45 17.6108 14.2986 17.6039 14.1497 17.6039C13.8445 17.6039 13.5393 17.6039 13.2365 17.6039C12.2183 17.6039 11.2026 17.6039 10.1845 17.6039C8.94899 17.6039 7.71108 17.6039 6.47561 17.6039C5.41106 17.6039 4.34406 17.6039 3.27951 17.6039C2.77409 17.6039 2.27111 17.6085 1.76569 17.6039C1.71686 17.6039 1.66559 17.6015 1.61675 17.5946C1.68268 17.6039 1.74616 17.6108 1.81209 17.6201C1.72419 17.6085 1.64117 17.5876 1.5606 17.5551C1.6192 17.5783 1.6778 17.6015 1.73639 17.6248C1.6778 17.5992 1.62164 17.569 1.56792 17.5388C1.47026 17.4854 1.68512 17.641 1.62652 17.5853C1.60455 17.5644 1.57769 17.5458 1.55571 17.5249C1.53618 17.5063 1.51909 17.4877 1.502 17.4692C1.41898 17.3855 1.59966 17.6155 1.54106 17.5133C1.50932 17.4599 1.47758 17.4088 1.45072 17.353C1.47514 17.4088 1.49956 17.4645 1.52397 17.5203C1.49223 17.4413 1.47026 17.3623 1.45561 17.281C1.46537 17.3437 1.4727 17.4041 1.48246 17.4668C1.44584 17.2021 1.47026 16.9257 1.47026 16.6609C1.47026 16.3427 1.47026 16.0245 1.47026 15.7063C1.47026 15.4857 1.48246 15.2674 1.51176 15.0491C1.502 15.1118 1.49467 15.1722 1.48491 15.2349C1.54351 14.8191 1.65826 14.415 1.82918 14.0295C1.80476 14.0852 1.78034 14.1409 1.75593 14.1967C1.87801 13.9249 2.02695 13.6625 2.20031 13.4163C2.24181 13.3582 2.28576 13.3002 2.32971 13.2421C2.43714 13.1051 2.23693 13.3513 2.31262 13.263C2.33948 13.2305 2.36634 13.2003 2.39319 13.1678C2.48842 13.0586 2.58853 12.9541 2.69596 12.8543C2.80095 12.7544 2.91082 12.6592 3.02558 12.5663C3.05732 12.5407 3.0915 12.5152 3.12569 12.4896C3.22579 12.413 2.96698 12.6011 3.0915 12.5152C3.15743 12.471 3.22091 12.4246 3.28683 12.3828C3.54565 12.2179 3.81911 12.0762 4.10722 11.9601C4.04862 11.9833 3.99003 12.0065 3.93143 12.0297C4.33674 11.8672 4.76158 11.758 5.19864 11.7023C5.13271 11.7116 5.06923 11.7185 5.0033 11.7278C5.3256 11.6883 5.64546 11.6883 5.96775 11.6883C6.37306 11.6883 6.77837 11.6883 7.18613 11.6883C8.15302 11.6883 9.1199 11.6883 10.0868 11.6883C10.4677 11.6883 10.8486 11.6837 11.2295 11.7301C11.1636 11.7208 11.1001 11.7139 11.0341 11.7046C11.4639 11.7627 11.8814 11.8718 12.2818 12.0297C12.2232 12.0065 12.1646 11.9833 12.106 11.9601C12.4112 12.0832 12.7018 12.2341 12.9728 12.413C13.0387 12.4548 13.0998 12.5012 13.1633 12.5454C12.9582 12.4037 13.1633 12.5477 13.2145 12.5872C13.3293 12.6801 13.4416 12.7776 13.5466 12.8821C13.6516 12.9843 13.7541 13.0935 13.8494 13.205C13.8713 13.2305 13.8957 13.2584 13.9177 13.2862C13.8933 13.2584 13.8713 13.2282 13.8469 13.2003C13.8616 13.2189 13.8762 13.2375 13.8909 13.2561C13.9348 13.3118 13.9763 13.3699 14.0154 13.4256C14.1839 13.6671 14.3304 13.9249 14.45 14.192C14.4256 14.1363 14.4012 14.0806 14.3767 14.0248C14.5452 14.408 14.6624 14.8098 14.721 15.2233C14.7113 15.1605 14.7039 15.1002 14.6942 15.0374C14.7259 15.2465 14.7406 15.4555 14.7406 15.6645C14.743 16.0292 15.0775 16.3776 15.473 16.3613C15.8686 16.345 16.208 16.0547 16.2055 15.6645C16.2031 15.063 16.103 14.4522 15.8857 13.8855C15.6586 13.2932 15.3436 12.7683 14.9334 12.2736C14.1521 11.333 12.9801 10.6548 11.7471 10.4133C11.1513 10.2971 10.5629 10.2925 9.95983 10.2925C9.2957 10.2925 8.63402 10.2925 7.96989 10.2925C7.33995 10.2925 6.70757 10.2925 6.07763 10.2925C5.47454 10.2925 4.87634 10.3134 4.28546 10.4504C2.16612 10.9451 0.435002 12.6801 0.0931729 14.7402C-0.0191424 15.4114 0.00527392 16.0849 0.00527392 16.7631C0.00527392 16.9861 -0.00937588 17.2137 0.0101572 17.4366C0.0736398 18.1473 0.593708 18.8116 1.3555 18.9556C1.62652 19.0067 1.88778 18.9997 2.1588 18.9997C2.56411 18.9997 2.97186 18.9997 3.37717 18.9997C4.67368 18.9997 5.96775 18.9997 7.26426 18.9997C8.68773 18.9997 10.1112 18.9997 11.5347 18.9997C12.4332 18.9997 13.3342 18.9997 14.2327 18.9997C14.3035 18.9997 14.3743 18.9997 14.4451 18.9997C14.9212 18.9974 15.4047 18.8186 15.727 18.4818C16.0102 18.1868 16.164 17.8338 16.2007 17.4366C16.208 17.3577 16.2055 17.2787 16.2055 17.1974C16.2055 16.8862 16.2055 16.575 16.2055 16.2638C16.2055 16.064 16.2055 15.8643 16.2055 15.6645C16.2055 15.2999 15.8686 14.9515 15.473 14.9678C15.0775 14.984 14.7406 15.272 14.7406 15.6645Z" fill="#F8F8F8"/>
<path d="M22.6152 14.4428C22.6152 14.7122 22.6152 14.9817 22.6152 15.2511C22.6152 15.5228 22.6347 15.8038 22.6103 16.0756C22.6201 16.0129 22.6274 15.9525 22.6372 15.8898C22.6298 15.9409 22.6176 15.9896 22.5981 16.0384C22.6225 15.9827 22.6469 15.9269 22.6713 15.8712C22.6591 15.8991 22.642 15.9246 22.6298 15.9525C22.5761 16.057 22.7617 15.8154 22.6567 15.9176C22.5566 16.0129 22.7715 15.8596 22.708 15.8828C22.6738 15.8944 22.6445 15.9176 22.6103 15.9316C22.6689 15.9083 22.7275 15.8851 22.7861 15.8619C22.7348 15.8805 22.6836 15.8921 22.6298 15.8991C22.6958 15.8898 22.7592 15.8828 22.8252 15.8735C22.5712 15.8944 22.31 15.8782 22.0561 15.8782C21.4749 15.8782 20.8963 15.8782 20.3152 15.8782C19.004 15.8782 17.6953 15.8782 16.3841 15.8782C16.0814 15.8782 15.7786 15.8782 15.4734 15.8782C15.7176 16.1104 15.9617 16.3427 16.2059 16.5749C16.2059 16.1127 16.2303 15.6436 16.1815 15.1837C16.0814 14.2408 15.7518 13.321 15.1584 12.5523C14.7971 12.0831 14.3893 11.6952 13.9059 11.3422C13.9547 11.7069 14.0036 12.0715 14.0548 12.4361C14.0939 12.4036 14.133 12.3734 14.172 12.3432C14.2819 12.255 14.028 12.4408 14.1452 12.3641C14.2184 12.3154 14.2917 12.2666 14.3674 12.2201C14.5212 12.1296 14.6823 12.0506 14.8484 11.9832C14.7898 12.0065 14.7312 12.0297 14.6726 12.0529C14.9534 11.9414 15.2463 11.8648 15.5467 11.823C15.4807 11.8323 15.4173 11.8392 15.3513 11.8485C15.6126 11.816 15.8714 11.816 16.1351 11.816C16.4745 11.816 16.8139 11.816 17.1533 11.816C17.9321 11.816 18.7086 11.816 19.4875 11.816C19.7682 11.816 20.0466 11.8114 20.3274 11.8462C20.2615 11.8369 20.198 11.83 20.132 11.8207C20.4373 11.8625 20.7327 11.9391 21.0184 12.0506C20.9598 12.0274 20.9012 12.0041 20.8426 11.9809C21.0452 12.0645 21.2406 12.1621 21.4237 12.2782C21.4676 12.3061 21.5116 12.3363 21.5555 12.3665C21.6605 12.4385 21.5091 12.3223 21.4969 12.3223C21.5091 12.3223 21.5482 12.3618 21.558 12.3711C21.6434 12.4385 21.7264 12.5105 21.807 12.5848C21.8827 12.6568 21.9535 12.7311 22.0219 12.8101C22.039 12.8286 22.0561 12.8495 22.0731 12.8681C22.1269 12.9308 21.9608 12.7241 22.0268 12.8124C22.0585 12.8542 22.0902 12.8937 22.1195 12.9355C22.2465 13.1143 22.3539 13.3024 22.4418 13.4999C22.4174 13.4441 22.393 13.3884 22.3686 13.3326C22.4882 13.6021 22.5688 13.8854 22.6103 14.1757C22.6005 14.113 22.5932 14.0526 22.5834 13.9899C22.6054 14.1409 22.6152 14.2919 22.6152 14.4428C22.6176 14.8075 22.9497 15.1558 23.3477 15.1396C23.7432 15.1233 24.0826 14.833 24.0802 14.4428C24.0753 13.3001 23.5528 12.1574 22.6298 11.4142C21.8314 10.7685 20.8474 10.4225 19.7975 10.4225C18.5718 10.4225 17.3461 10.4225 16.1229 10.4225C15.7982 10.4225 15.4807 10.4341 15.1584 10.4805C14.3576 10.592 13.6251 10.952 13.0171 11.4537C12.8438 11.5977 12.7876 11.8323 12.8145 12.039C12.8487 12.2712 12.9732 12.4083 13.1636 12.5476C13.1514 12.5383 13.0269 12.4431 13.1026 12.5035C13.1221 12.5174 13.1392 12.5314 13.1588 12.5476C13.2003 12.5801 13.2418 12.615 13.2833 12.6475C13.3614 12.7125 13.4347 12.7799 13.5079 12.8472C13.5812 12.9169 13.652 12.9866 13.7203 13.0609C13.7838 13.1306 13.8449 13.2281 13.9181 13.2862C13.9059 13.2769 13.8131 13.1515 13.8693 13.2281C13.8839 13.2467 13.8986 13.2653 13.9132 13.2839C13.9425 13.321 13.9694 13.3582 13.9962 13.3977C14.0548 13.479 14.1085 13.5626 14.1623 13.6462C14.2721 13.8227 14.3674 14.0039 14.4504 14.192C14.426 14.1362 14.4015 14.0805 14.3771 14.0248C14.5456 14.408 14.6628 14.8098 14.7214 15.2232C14.7116 15.1605 14.7043 15.1001 14.6945 15.0374C14.7629 15.5437 14.7385 16.0616 14.7385 16.5726C14.7385 16.9488 15.073 17.2694 15.471 17.2694C15.8616 17.2694 16.2547 17.2694 16.6454 17.2694C17.5049 17.2694 18.3643 17.2694 19.2213 17.2694C20.0588 17.2694 20.8938 17.2694 21.7313 17.2694C21.9926 17.2694 22.2538 17.2694 22.5151 17.2694C22.7715 17.2694 23.0132 17.267 23.2573 17.1672C23.7554 16.9674 24.0631 16.5215 24.0753 16.0082C24.0777 15.8944 24.0753 15.7783 24.0753 15.6622C24.0753 15.2813 24.0753 14.9004 24.0753 14.5195C24.0753 14.4916 24.0753 14.466 24.0753 14.4382C24.0753 14.0735 23.7383 13.7252 23.3428 13.7414C22.9521 13.7623 22.6152 14.0526 22.6152 14.4428Z" fill="#F8F8F8"/>
</svg>
