<svg width="20" height="27" viewBox="0 0 20 27" fill="none" xmlns="http://www.w3.org/2000/svg">
<path d="M9.9999 16.2564C9.57575 16.2564 9.23067 15.9114 9.23067 15.4872C9.23067 15.1774 9.41503 14.8991 9.70036 14.7782C10.0448 14.6324 10.457 14.7568 10.8316 15.1197C11.1367 15.4153 11.6237 15.4076 11.9193 15.1025C12.2149 14.7974 12.2072 14.3104 11.9021 14.0148C11.5548 13.6784 11.1688 13.4406 10.7691 13.3064V12.4103C10.7691 11.9855 10.4247 11.6411 9.9999 11.6411C9.57508 11.6411 9.23067 11.9855 9.23067 12.4103V13.3114C9.18703 13.3269 9.14354 13.3433 9.10041 13.3616C8.24498 13.7239 7.69221 14.5582 7.69221 15.4872C7.69221 16.7597 8.72744 17.7949 9.9999 17.7949C10.4241 17.7949 10.7691 18.14 10.7691 18.5641C10.7691 18.8865 10.5658 19.1772 10.2632 19.2874C9.86805 19.4312 9.40811 19.2361 9.00134 18.7517C8.72811 18.4264 8.24293 18.3842 7.91759 18.6574C7.59226 18.9306 7.55006 19.4159 7.82329 19.7412C8.23913 20.2363 8.72318 20.5758 9.23072 20.7467V21.6411C9.23072 22.0659 9.57513 22.4103 9.99995 22.4103C10.4248 22.4103 10.7692 22.0659 10.7692 21.6411V20.7399C10.7761 20.7375 10.7829 20.7354 10.7897 20.7329C11.6976 20.4022 12.3076 19.5306 12.3076 18.5641C12.3076 17.2917 11.2724 16.2564 9.9999 16.2564Z" fill="#F8F8F8"/>
<path d="M17.1241 11.5517C16.2098 10.427 15.1647 9.53087 14.0174 8.88646C14.2053 8.66415 14.3535 8.40349 14.4493 8.11297C14.825 6.96892 14.2762 5.60995 12.8755 5.16723L14.8391 1.74338C15.0868 1.31128 14.8643 0.760923 14.3866 0.622051C12.9669 0.209282 11.4911 0 10 0C8.50892 0 7.03313 0.209282 5.61344 0.622051C5.13518 0.761077 4.91349 1.31179 5.16092 1.74338L7.12446 5.16728C5.72933 5.60774 5.17364 6.96472 5.55092 8.11359C5.64636 8.40333 5.79456 8.66385 5.98303 8.88626C4.83559 9.53067 3.79036 10.4269 2.876 11.5517C1.04826 13.8003 0 16.6366 0 19.3333C0 24.9277 4.46395 26.2564 10 26.2564C15.5399 26.2564 20 24.9255 20 19.3333C20 16.6366 18.9517 13.8003 17.1241 11.5517ZM6.99979 1.85733C7.98118 1.64549 8.98656 1.53846 10 1.53846C11.0134 1.53846 12.0188 1.64549 13.0002 1.85733L11.3062 4.81128C10.4386 4.69015 9.56169 4.69021 8.69385 4.81133L6.99979 1.85733ZM7.50236 6.66133C8.82621 6.22708 10.2112 6.14477 11.5577 6.41395C11.5593 6.41426 11.561 6.41456 11.5626 6.41487C11.8764 6.47785 12.1882 6.5598 12.4966 6.66097C12.8997 6.79385 13.12 7.2299 12.9878 7.63231C12.8918 7.92374 12.6382 8.12446 12.3399 8.15697C11.5729 7.91682 10.7906 7.79487 10 7.79487C9.21097 7.79487 8.43021 7.91631 7.66472 8.15549C7.3618 8.12431 7.10759 7.92215 7.01236 7.63303C6.88 7.2299 7.10031 6.79379 7.50236 6.66133ZM10 24.7282C3.98995 24.7282 1.53846 23.1579 1.53846 19.3333C1.53846 17.0184 2.48477 14.4722 4.06974 12.5222C5.74128 10.4658 7.84733 9.33333 10 9.33333C12.3695 9.33333 14.4421 10.6914 15.9303 12.5222C17.5152 14.4722 18.4615 17.0184 18.4615 19.3333C18.4615 23.1579 16.0101 24.7282 10 24.7282Z" fill="#F8F8F8"/>
</svg>
