<svg width="16" height="17" viewBox="0 0 16 17" fill="none" xmlns="http://www.w3.org/2000/svg">
<path d="M16 12.6165V16.1581C16 16.2286 15.9899 16.2941 15.9748 16.3546C15.9043 16.7022 15.597 16.9641 15.2343 16.9641H0.760705C0.372796 16.9641 0.0503779 16.6669 0.0100756 16.2891C3.82851e-08 16.2437 0 16.2034 0 16.1531V12.6115C0 12.1934 0.342569 11.8558 0.755668 11.8558C0.962217 11.8558 1.15365 11.9415 1.28967 12.0775C1.42569 12.2135 1.51134 12.405 1.51134 12.6115V15.4478H14.4937V12.6115C14.4937 12.1934 14.8363 11.8558 15.2494 11.8558C15.4559 11.8558 15.6474 11.9415 15.7834 12.0775C15.9144 12.2186 16 12.41 16 12.6165Z" fill="#1C2638"/>
<path d="M12.3578 9.06995L8.64491 12.7828C8.63987 12.7929 8.6298 12.7979 8.62476 12.8029C8.48874 12.939 8.31242 13.0246 8.13609 13.0498C8.12098 13.0498 8.10587 13.0548 8.09075 13.0548C8.06053 13.0599 8.0303 13.0599 8.00007 13.0599L7.91443 13.0548C7.89932 13.0548 7.88421 13.0498 7.86909 13.0498C7.68773 13.0246 7.51645 12.939 7.38043 12.8029C7.37539 12.7979 7.36531 12.7878 7.36028 12.7828L3.64743 9.06995C3.47615 8.89867 3.3905 8.67197 3.3905 8.44527C3.3905 8.21857 3.47615 7.99187 3.64743 7.82058C3.99 7.47801 4.54919 7.47801 4.8968 7.82058L7.12854 10.0523V1.876C7.12854 1.39237 7.52652 0.994385 8.01015 0.994385C8.25196 0.994385 8.47363 1.09514 8.63484 1.25131C8.79604 1.41252 8.89176 1.62915 8.89176 1.876V10.0523L11.1235 7.82058C11.4661 7.47801 12.0253 7.47801 12.3729 7.82058C12.7003 8.16819 12.7003 8.72738 12.3578 9.06995Z" fill="#1C2638"/>
</svg>
