<svg width="26" height="18" viewBox="0 0 26 18" fill="none" xmlns="http://www.w3.org/2000/svg">
<path fill-rule="evenodd" clip-rule="evenodd" d="M4.54373 1.99597C3.84026 1.29261 2.69953 1.29261 1.99597 1.99597C1.29251 2.69944 1.29251 3.84037 1.99597 4.54403C2.53217 5.08003 5.74221 6.17293 5.79192 5.72653C5.71456 4.66247 5.33131 2.78346 4.54373 1.99597ZM4.64853 9.61396C4.35882 9.89604 3.89517 9.88937 3.61349 9.59945C3.33142 9.30964 3.33779 8.84618 3.62771 8.56441L5.04541 7.18562C4.25626 7.12444 3.39191 6.88835 2.64305 6.58608V15.9903H5.873V8.42322L4.64853 9.61396ZM8.65018 7.57181L9.7917 8.76932C10.0704 9.06237 10.0589 9.52582 9.76601 9.80446C9.47276 10.0833 9.00931 10.0719 8.73067 9.77878L7.3413 8.32165V15.9903H23.5917V7.57181H8.65018ZM12.0254 0.957985C12.4997 1.43222 12.7979 2.01637 12.9199 2.62835H23.6323C24.419 2.62835 25.06 3.26936 25.06 4.05616V16.0311C25.06 16.8178 24.419 17.4588 23.6323 17.4588H2.60246C1.81576 17.4588 1.17476 16.8178 1.17476 16.0311V5.77516C0.406292 5.15837 0 4.18843 0 3.26995C0 1.46418 1.46418 0 3.26975 0C4.10675 0 4.94355 0.319328 5.58191 0.957985C5.91663 1.29251 6.23066 1.82057 6.49155 2.41834C6.75245 1.82057 7.06648 1.29251 7.4014 0.957985C8.67822 -0.319328 10.7483 -0.319328 12.0254 0.957985ZM12.8774 4.09666C12.7356 4.6408 12.4515 5.15582 12.0253 5.58202C11.8435 5.76379 11.6049 5.93919 11.3293 6.10341H23.5917V4.09666H12.8774ZM11.5147 3.26995C11.5147 2.27491 10.7084 1.4683 9.71336 1.4683C9.25216 1.4683 8.79106 1.64419 8.43938 1.99597C7.66749 2.76787 7.27149 4.62501 7.19119 5.72653C7.23933 6.15989 10.4303 5.10072 10.987 4.54403C11.3388 4.19215 11.5147 3.73095 11.5147 3.26995ZM16.152 14.522C15.7465 14.522 15.4178 14.1933 15.4178 13.7879C15.4178 13.3822 15.7465 13.0537 16.152 13.0537H19.6756C20.081 13.0537 20.4098 13.3822 20.4098 13.7879C20.4098 14.1933 20.081 14.522 19.6756 14.522H16.152ZM16.152 11.5852C15.7465 11.5852 15.4178 11.2567 15.4178 10.8511C15.4178 10.4457 15.7465 10.1169 16.152 10.1169H21.3891C21.7946 10.1169 22.1232 10.4457 22.1232 10.8511C22.1232 11.2567 21.7946 11.5852 21.3891 11.5852H16.152Z" fill="#F8F8F8"/>
</svg>
