<svg width="23" height="23" viewBox="0 0 23 23" fill="none" xmlns="http://www.w3.org/2000/svg">
<path d="M22.5208 22.0417H0.479182C0.214682 22.0417 0 22.2564 0 22.5209C0 22.7854 0.214682 23.0001 0.479182 23.0001H22.5209C22.7854 23.0001 23 22.7854 23 22.5209C23 22.2564 22.7853 22.0417 22.5208 22.0417Z" fill="#F8F8F8"/>
<path d="M4.31219 16.2917H1.43719C1.17269 16.2917 0.958008 16.5064 0.958008 16.7709V22.5209C0.958008 22.7854 1.17269 23.0001 1.43719 23.0001H4.31219C4.57669 23.0001 4.79137 22.7854 4.79137 22.5209V16.7709C4.79137 16.5064 4.57669 16.2917 4.31219 16.2917ZM3.83301 22.0417H1.91637V17.2501H3.83305V22.0417H3.83301Z" fill="#F8F8F8"/>
<path d="M10.0622 11.5H7.18719C6.92269 11.5 6.70801 11.7147 6.70801 11.9792V22.5209C6.70801 22.7854 6.92269 23 7.18719 23H10.0622C10.3267 23 10.5414 22.7854 10.5414 22.5209V11.9792C10.5414 11.7147 10.3267 11.5 10.0622 11.5ZM9.58301 22.0417H7.66633V12.4583H9.58301V22.0417Z" fill="#F8F8F8"/>
<path d="M15.8122 13.4167H12.9372C12.6727 13.4167 12.458 13.6314 12.458 13.8959V22.5209C12.458 22.7854 12.6727 23.0001 12.9372 23.0001H15.8122C16.0767 23.0001 16.2914 22.7854 16.2914 22.5209V13.8959C16.2914 13.6314 16.0767 13.4167 15.8122 13.4167ZM15.333 22.0417H13.4163V14.3751H15.333V22.0417Z" fill="#F8F8F8"/>
<path d="M21.5622 7.66675H18.6872C18.4227 7.66675 18.208 7.88143 18.208 8.14593V22.5209C18.208 22.7854 18.4227 23.0001 18.6872 23.0001H21.5622C21.8267 23.0001 22.0414 22.7854 22.0414 22.5209V8.14593C22.0414 7.88138 21.8267 7.66675 21.5622 7.66675ZM21.083 22.0417H19.1663V8.62507H21.083V22.0417Z" fill="#F8F8F8"/>
<path d="M2.87469 8.625C1.81763 8.625 0.958008 9.48463 0.958008 10.5417C0.958008 11.5987 1.81763 12.4584 2.87469 12.4584C3.93175 12.4584 4.79137 11.5987 4.79137 10.5417C4.79137 9.48463 3.93175 8.625 2.87469 8.625ZM2.87469 11.5C2.34569 11.5 1.91637 11.0697 1.91637 10.5417C1.91637 10.0136 2.34569 9.58336 2.87469 9.58336C3.40369 9.58336 3.83301 10.0137 3.83301 10.5417C3.83301 11.0697 3.40369 11.5 2.87469 11.5Z" fill="#F8F8F8"/>
<path d="M8.62469 3.83325C7.56763 3.83325 6.70801 4.69288 6.70801 5.74993C6.70801 6.80698 7.56763 7.66661 8.62469 7.66661C9.68175 7.66661 10.5414 6.80698 10.5414 5.74993C10.5414 4.69288 9.68175 3.83325 8.62469 3.83325ZM8.62469 6.70825C8.09569 6.70825 7.66637 6.27794 7.66637 5.74993C7.66637 5.22187 8.09569 4.79161 8.62469 4.79161C9.15369 4.79161 9.58301 5.22192 9.58301 5.74993C9.58301 6.27799 9.15369 6.70825 8.62469 6.70825Z" fill="#F8F8F8"/>
<path d="M14.3747 5.75C13.3176 5.75 12.458 6.60963 12.458 7.66668C12.458 8.72374 13.3176 9.58336 14.3747 9.58336C15.4317 9.58336 16.2914 8.72374 16.2914 7.66668C16.2914 6.60963 15.4317 5.75 14.3747 5.75ZM14.3747 8.625C13.8457 8.625 13.4164 8.19469 13.4164 7.66668C13.4164 7.13863 13.8457 6.70836 14.3747 6.70836C14.9037 6.70836 15.333 7.13867 15.333 7.66668C15.333 8.19469 14.9037 8.625 14.3747 8.625Z" fill="#F8F8F8"/>
<path d="M20.1247 0C19.0676 0 18.208 0.859625 18.208 1.91668C18.208 2.97374 19.0676 3.83336 20.1247 3.83336C21.1817 3.83336 22.0414 2.97374 22.0414 1.91668C22.0414 0.859625 21.1817 0 20.1247 0ZM20.1247 2.875C19.5957 2.875 19.1664 2.44469 19.1664 1.91668C19.1664 1.38863 19.5957 0.958363 20.1247 0.958363C20.6537 0.958363 21.083 1.38867 21.083 1.91668C21.083 2.44469 20.6537 2.875 20.1247 2.875Z" fill="#F8F8F8"/>
<path d="M19.4481 2.59328C19.2613 2.40641 18.9575 2.40641 18.7706 2.59328L15.0523 6.3116C14.8654 6.49848 14.8654 6.80228 15.0523 6.98916C15.1462 7.0821 15.2688 7.12909 15.3915 7.12909C15.5132 7.12909 15.6359 7.08309 15.7298 6.98916L19.4481 3.27084C19.635 3.08396 19.635 2.78016 19.4481 2.59328Z" fill="#F8F8F8"/>
<path d="M13.2164 6.56067L10.1382 5.68285C9.88041 5.6081 9.61879 5.7576 9.54692 6.01253C9.4741 6.26746 9.62167 6.53196 9.87561 6.60478L12.9538 7.4826C12.9979 7.49504 13.042 7.50079 13.0851 7.50079C13.294 7.50079 13.4857 7.36374 13.546 7.15292C13.6189 6.89898 13.4713 6.63349 13.2164 6.56067Z" fill="#F8F8F8"/>
<path d="M7.87751 6.34699C7.71269 6.13999 7.41176 6.10643 7.20476 6.2703L3.59182 9.15105C3.38482 9.31686 3.35032 9.61775 3.51613 9.82475C3.61101 9.94357 3.75094 10.0049 3.89082 10.0049C3.99527 10.0049 4.1007 9.97043 4.18888 9.90143L7.80182 7.02068C8.00882 6.85487 8.04332 6.55398 7.87751 6.34699Z" fill="#F8F8F8"/>
</svg>
