<?xml version="1.0" encoding="utf-8"?>
<!-- Generator: Adobe Illustrator 24.3.0, SVG Export Plug-In . SVG Version: 6.00 Build 0)  -->
<svg version="1.1" id="Layer_2" xmlns="http://www.w3.org/2000/svg" xmlns:xlink="http://www.w3.org/1999/xlink" x="0px" y="0px"
	 viewBox="0 0 20 20" style="enable-background:new 0 0 20 20;" xml:space="preserve">
<g>
	<ellipse cx="10.1" cy="6" rx="7.4" ry="3.1"/>
	<path d="M10.1,15.9c-3.1,0-5.7-0.8-6.9-2c-0.2-0.2-0.5-0.1-0.5,0.2v1.8c0,1.7,3.3,3.1,7.4,3.1s7.4-1.4,7.4-3.1v-1.8
		c0-0.3-0.3-0.4-0.5-0.2C15.9,15,13.2,15.9,10.1,15.9z"/>
	<path d="M10.1,10.8c-3.1,0-5.7-0.8-6.9-2C3.1,8.6,2.8,8.8,2.8,9v1.8c0,1.7,3.3,3.1,7.4,3.1s7.4-1.4,7.4-3.1V9
		c0-0.3-0.3-0.4-0.5-0.2C15.9,10,13.2,10.8,10.1,10.8z"/>
</g>
</svg>
