<svg width="24" height="20" viewBox="0 0 24 20" fill="none" xmlns="http://www.w3.org/2000/svg">
<path fill-rule="evenodd" clip-rule="evenodd" d="M0 0.5C0 0.223858 0.223858 0 0.5 0H23.5C23.7761 0 24 0.223858 24 0.5C24 0.776142 23.7761 1 23.5 1H0.5C0.223857 1 0 0.776142 0 0.5ZM0 6.5C0 6.22386 0.223858 6 0.5 6H23.5C23.7761 6 24 6.22386 24 6.5C24 6.77614 23.7761 7 23.5 7H0.5C0.223857 7 0 6.77614 0 6.5ZM0.5 12C0.223858 12 0 12.2239 0 12.5C0 12.7761 0.223858 13 0.5 13H8.5C8.77614 13 9 12.7761 9 12.5C9 12.2239 8.77614 12 8.5 12H0.5ZM0 18.5C0 18.2239 0.223858 18 0.5 18H8.5C8.77614 18 9 18.2239 9 18.5C9 18.7761 8.77614 19 8.5 19H0.5C0.223858 19 0 18.7761 0 18.5ZM23.3535 15.6464L20.1716 12.4645C19.9763 12.2692 19.6597 12.2692 19.4644 12.4645C19.2692 12.6597 19.2692 12.9763 19.4644 13.1716L21.7929 15.5H13.5V16.5H21.7929L19.4644 18.8284C19.2692 19.0237 19.2692 19.3403 19.4644 19.5355C19.6597 19.7308 19.9763 19.7308 20.1716 19.5355L23.3535 16.3536C23.5488 16.1583 23.5488 15.8417 23.3535 15.6464Z" fill="#C4C4C4"/>
</svg>
