<svg width="23" height="31" viewBox="0 0 23 31" fill="none" xmlns="http://www.w3.org/2000/svg">
<path d="M22.2991 24.7393C22.2146 24.6807 21.5787 24.2056 20.9419 22.768C19.7726 20.1282 19.5271 16.4095 19.5271 13.7547C19.5271 13.7432 19.5269 13.7318 19.5265 13.7203C19.5138 10.2117 17.5441 7.18715 14.7256 5.83011V3.75469C14.7256 1.87132 13.2915 0.339111 11.5288 0.339111H11.2638C9.5011 0.339111 8.06701 1.87132 8.06701 3.75469V5.82999C5.23904 7.1914 3.26549 10.2314 3.26549 13.7547C3.26549 16.4095 3.02004 20.1281 1.85066 22.768C1.21395 24.2055 0.578037 24.6807 0.493487 24.7393C0.137436 24.915 -0.0381192 25.321 0.0437917 25.7325C0.126488 26.148 0.490624 26.4345 0.888276 26.4345H7.06089C7.09537 28.9581 9.02631 31 11.3963 31C13.7664 31 15.6973 28.9581 15.7318 26.4345H21.9044C22.302 26.4345 22.6662 26.148 22.7489 25.7325C22.8307 25.321 22.6552 24.915 22.2991 24.7393ZM9.75132 3.75469C9.75132 2.86354 10.4299 2.13858 11.2639 2.13858H11.5288C12.3629 2.13858 13.0414 2.86354 13.0414 3.75469V5.24683C12.5098 5.12964 11.9596 5.06795 11.3961 5.06795C10.8328 5.06795 10.2827 5.12958 9.75138 5.24665V3.75469H9.75132ZM11.3963 29.2005C9.955 29.2005 8.77934 27.9659 8.74515 26.4346H14.0475C14.0133 27.9658 12.8377 29.2005 11.3963 29.2005ZM14.7873 24.635C14.7871 24.635 2.80748 24.635 2.80748 24.635C2.95317 24.3928 3.10144 24.1186 3.24881 23.8087C4.37749 21.4347 4.9498 18.0521 4.9498 13.7547C4.9498 9.95705 7.8416 6.86743 11.3961 6.86743C14.9505 6.86743 17.8423 9.95705 17.8423 13.7577C17.8423 13.7688 17.8425 13.7798 17.8429 13.7909C17.8461 18.0709 18.4183 21.4414 19.5438 23.8087C19.6912 24.1187 19.8395 24.3928 19.9852 24.635H14.7873Z" fill="#606368"/>
</svg>
