<svg width="17" height="19" viewBox="0 0 17 19" fill="none" xmlns="http://www.w3.org/2000/svg">
<rect x="4" y="4" width="10" height="11" fill="white"/>
<path d="M14.5395 0H2.46053C1.10321 0 0 1.0771 0 2.4023V16.5977C0 17.9229 1.10321 19 2.46053 19H14.5395C15.8968 19 17 17.9229 17 16.5977V2.4023C17 1.0771 15.8968 0 14.5395 0ZM4.47368 5.02299H8.94737C9.44126 5.02299 9.8421 5.41434 9.8421 5.89655C9.8421 6.37876 9.44126 6.77011 8.94737 6.77011H4.47368C3.97979 6.77011 3.57895 6.37876 3.57895 5.89655C3.57895 5.41434 3.97979 5.02299 4.47368 5.02299ZM13.4211 13.7586H4.47368C3.97979 13.7586 3.57895 13.3673 3.57895 12.8851C3.57895 12.4029 3.97979 12.0115 4.47368 12.0115H13.4211C13.9149 12.0115 14.3158 12.4029 14.3158 12.8851C14.3158 13.3673 13.9149 13.7586 13.4211 13.7586ZM13.4211 10.2644H4.47368C3.97979 10.2644 3.57895 9.87301 3.57895 9.3908C3.57895 8.9086 3.97979 8.51724 4.47368 8.51724H13.4211C13.9149 8.51724 14.3158 8.9086 14.3158 9.3908C14.3158 9.87301 13.9149 10.2644 13.4211 10.2644Z" fill="#FBA61F"/>
</svg>
