<svg width="18" height="24" viewBox="0 0 18 24" fill="none" xmlns="http://www.w3.org/2000/svg">
<path fill-rule="evenodd" clip-rule="evenodd" d="M8.99976 0.5C6.15576 0.5 3.84473 2.79247 3.84473 5.61363V7.19568H1.85449C1.65321 7.19518 1.45925 7.27251 1.31185 7.41203C1.16446 7.55156 1.07463 7.74286 1.06054 7.94723L0.0019478 23.0321C-0.00569014 23.1429 0.00918764 23.2541 0.0456529 23.3588C0.0821182 23.4634 0.139388 23.5593 0.213888 23.6405C0.288388 23.7216 0.378519 23.7862 0.478656 23.8303C0.578792 23.8744 0.686785 23.8971 0.795894 23.8968H17.2041C17.3132 23.8971 17.4212 23.8744 17.5213 23.8303C17.6215 23.7862 17.7116 23.7216 17.7861 23.6405C17.8606 23.5593 17.9179 23.4634 17.9543 23.3588C17.9908 23.2541 18.0057 23.1429 17.9981 23.0321L16.9395 7.94723C16.9254 7.74286 16.8355 7.55156 16.6881 7.41203C16.5408 7.27251 16.3468 7.19518 16.1455 7.19568H14.1548V5.61363C14.1548 2.79247 11.8438 0.5 8.99976 0.5ZM12.7801 7.19568V5.61363C12.7801 3.52434 11.106 1.86364 8.99976 1.86364C6.89356 1.86364 5.2194 3.52434 5.2194 5.61363V7.19568H12.7801ZM16.5 22.5001H1.5L2.5 8.50006H15.5L16.5 22.5001Z" fill="#F8F8F8"/>
</svg>
