<svg width="44" height="44" viewBox="0 0 44 44" fill="none" xmlns="http://www.w3.org/2000/svg">
<circle cx="22" cy="22" r="22" fill="#B0DEF5"/>
<path d="M28.293 14.8672V25.9531C28.293 27.9062 27.7031 29.4414 26.5234 30.5586C25.3438 31.6758 23.7227 32.2344 21.6602 32.2344C19.5977 32.2344 18 31.6719 16.8672 30.5469C15.7422 29.4219 15.1797 27.875 15.1797 25.9062V14.8672H17.1719V26.0469C17.1719 27.4766 17.5625 28.5742 18.3438 29.3398C19.125 30.1055 20.2734 30.4883 21.7891 30.4883C23.2344 30.4883 24.3477 30.1055 25.1289 29.3398C25.9102 28.5664 26.3008 27.4609 26.3008 26.0234V14.8672H28.293Z" fill="#111927"/>
</svg>
