<svg width="29" height="30" viewBox="0 0 29 30" fill="none" xmlns="http://www.w3.org/2000/svg">
<path d="M27.8908 27.5754L19.8613 19.237C21.4167 17.2419 22.3531 14.7068 22.3531 11.9457C22.3531 5.5462 17.339 0.339111 11.1765 0.339111C5.01413 0.339111 0 5.54614 0 11.9456C0 18.3451 5.01418 23.5522 11.1766 23.5522C13.8354 23.5522 16.2766 22.5797 18.1978 20.9646L26.2273 29.303C26.4567 29.5412 26.7579 29.6609 27.0591 29.6609C27.3603 29.6609 27.6615 29.5412 27.8909 29.303C28.3509 28.8253 28.3509 28.0531 27.8908 27.5754ZM11.1766 21.1087C6.31065 21.1087 2.35298 16.9988 2.35298 11.9456C2.35298 6.89248 6.31065 2.78256 11.1766 2.78256C16.0425 2.78256 20.0002 6.89248 20.0002 11.9456C20.0002 16.9988 16.0425 21.1087 11.1766 21.1087Z" fill="#606368"/>
</svg>
