<svg width="16" height="16" viewBox="0 0 16 16" fill="none" xmlns="http://www.w3.org/2000/svg">
<path d="M9.05625 6.25625H7.51562V4.71562C7.51562 4.3625 7.23125 4.07812 6.87813 4.07812C6.525 4.07812 6.24062 4.3625 6.24062 4.71562V6.25625H4.7C4.34687 6.25625 4.0625 6.54063 4.0625 6.89375C4.0625 7.24688 4.34687 7.53125 4.7 7.53125H6.24062V9.07187C6.24062 9.425 6.525 9.70938 6.87813 9.70938C7.23125 9.70938 7.51562 9.425 7.51562 9.07187V7.53125H9.05625C9.40937 7.53125 9.69375 7.24688 9.69375 6.89375C9.69375 6.54063 9.40625 6.25625 9.05625 6.25625Z" fill="#111927"/>
<path d="M6.88125 12.1468C3.97812 12.1468 1.625 9.79683 1.625 6.8937C1.625 3.99058 3.97812 1.64058 6.88125 1.64058C9.78437 1.64058 12.1344 3.9937 12.1344 6.8937C12.1344 9.7937 9.78125 12.1468 6.88125 12.1468ZM15.4687 14.5843L11.9281 11.0437C12.8562 9.91558 13.4156 8.4687 13.4156 6.8937C13.4156 3.28433 10.4906 0.356201 6.87812 0.356201C3.26562 0.356201 0.34375 3.28433 0.34375 6.8937C0.34375 10.5031 3.26875 13.4312 6.88125 13.4312C8.45625 13.4312 9.9 12.875 11.0281 11.9468L14.5687 15.4875C14.7312 15.6531 15.2281 15.7343 15.4719 15.4875C15.7187 15.2375 15.7187 14.8343 15.4687 14.5843Z" fill="#111927"/>
</svg>
